# xmcd CD database file
#
# Track frame offsets:
#	150
#	16650
#	38065
#	59103
#	76413
#	95153
#	114130
#	135298
#	155428
#
# Disc length: 2307 seconds
#
# Revision: 0
# Processed by: cddbd v1.5.2PL0 Copyright (c) Steve Scherf et al.
# Submitted via: Feurio! 1.68 - http://www.feurio.com
#
DISCID=66090109
DTITLE=Gray and Rogers - Don't Deny It # 0259
DYEAR=1990
DGENRE=Funk
TTITLE0=Every Minute, Every Day
TTITLE1=My Cup Runneth Over
TTITLE2=Don't Deny It
TTITLE3=Watchin' Her Every Move
TTITLE4=Let Me Show You
TTITLE5=Bad Girls
TTITLE6=Come And See Your Baby
TTITLE7=You Can't Judge A Book
TTITLE8=Tonight
EXTD=
EXTT0=
EXTT1=
EXTT2=
EXTT3=
EXTT4=
EXTT5=
EXTT6=
EXTT7=
EXTT8=
PLAYORDER=
